<svg height="457.14286pt" viewBox="0 0 457.14286 457.14286" width="457.14286pt" xmlns="http://www.w3.org/2000/svg"><path d="m431.332031 0h-405.519531c-14.230469 0-25.8125 11.582031-25.8125 25.8125v405.519531c0 14.230469 11.582031 25.8125 25.8125 25.8125h405.519531c14.230469 0 25.8125-11.582031 25.8125-25.8125v-405.519531c0-14.230469-11.582031-25.8125-25.8125-25.8125zm7.523438 431.332031c0 4.148438-3.375 7.523438-7.523438 7.523438h-405.519531c-4.152344 0-7.527344-3.375-7.527344-7.523438v-333.617187h420.570313zm0-351.902343h-420.570313v-53.617188c0-4.152344 3.375-7.527344 7.527344-7.527344h405.519531c4.148438 0 7.523438 3.375 7.523438 7.527344zm0 0"/><path d="m396.855469 39.714844h-262.285157c-5.050781 0-9.140624 4.089844-9.140624 9.140625 0 5.054687 4.089843 9.144531 9.140624 9.144531h262.285157c5.054687 0 9.144531-4.089844 9.144531-9.144531 0-5.050781-4.089844-9.140625-9.144531-9.140625zm0 0"/><path d="m66.742188 42.417969c-2.109376-2.195313-5.214844-3.195313-8.234376-2.5625-.632812.1875-1.1875.367187-1.730468.554687-.554688.179688-1.097656.546875-1.554688.820313-.554687.367187-1.007812.734375-1.375 1.1875-.910156.824219-1.554687 1.832031-2.007812 2.929687-.457032 1.097656-.734375 2.285156-.734375 3.472656 0 1.277344.277343 2.375.734375 3.5625.453125 1.097657 1.097656 2.109376 2.007812 2.929688 1.742188 1.742188 4.027344 2.652344 6.402344 2.652344 1.277344 0 2.464844-.1875 3.5625-.644532 1.097656-.453124 2.105469-1.1875 2.929688-2.007812 1.738281-1.742188 2.652343-4.027344 2.652343-6.492188 0-1.1875-.1875-2.375-.644531-3.472656s-1.1875-2.105468-2.007812-2.929687zm0 0"/><path d="m90.417969 42.417969c-.910157.824219-1.550781 1.832031-2.007813 2.929687-.453125 1.097656-.730468 2.285156-.730468 3.472656 0 1.277344.277343 2.375.730468 3.5625.457032 1.097657 1.097656 2.109376 2.007813 2.929688.824219.820312 1.832031 1.554688 2.929687 2.007812 1.097656.457032 2.285156.644532 3.472656.644532 2.464844 0 4.75-.910156 6.492188-2.652344s2.652344-4.027344 2.652344-6.492188c0-2.375-.910156-4.757812-2.652344-6.402343-3.292969-3.382813-9.507812-3.472657-12.894531 0zm0 0"/><path d="m163.21875 210.300781h-16.9375l-51.746094 74.042969v10.34375h53.882813v31.582031h14.800781v-31.582031h16.242188v-12.304688h-16.242188zm-14.800781 33.367188v38.714843h-38.003907v-.363281l28.371094-39.425781c3.210938-5.34375 6.074219-10.34375 9.632813-17.128906h.535156c-.363281 6.074218-.535156 12.132812-.535156 18.203125zm0 0"/><path d="m230.191406 208.339844c-23.550781 0-40.328125 21.414062-40.328125 60.300781.363281 38.367187 15.703125 59.589844 38.367188 59.589844 25.683593 0 40.3125-21.761719 40.3125-61.1875 0-36.941407-13.917969-58.703125-38.351563-58.703125zm-1.074218 107.761718c-14.265626 0-23.550782-17.128906-23.550782-47.285156 0-31.566406 9.996094-48.347656 23.722656-48.347656 16.242188 0 23.550782 18.742188 23.550782 47.285156 0 29.609375-7.671875 48.347656-23.722656 48.347656zm0 0"/><path d="m346.378906 210.300781h-16.953125l-51.746093 74.042969v10.34375h53.882812v31.582031h14.816406v-31.582031h16.226563v-12.304688h-16.226563zm-14.816406 33.367188v38.714843h-38.003906v-.363281l28.371094-39.425781c3.210937-5.34375 6.074218-10.34375 9.632812-17.128906h.539062c-.363281 6.074218-.539062 12.132812-.539062 18.203125zm0 0"/></svg>