<?xml version="1.0" encoding="iso-8859-1"?>
<!-- Generator: Adobe Illustrator 19.0.0, SVG Export Plug-In . SVG Version: 6.00 Build 0)  -->
<svg version="1.1" id="Layer_1" xmlns="http://www.w3.org/2000/svg" xmlns:xlink="http://www.w3.org/1999/xlink" x="0px" y="0px"
	 viewBox="0 0 511.997 511.997" style="enable-background:new 0 0 511.997 511.997;" xml:space="preserve">
<g>
	<g>
		<g>
			<path d="M508.872,478.706L33.292,3.124c-4.167-4.165-10.919-4.165-15.086,0L3.125,18.206c-4.167,4.165-4.167,10.919,0,15.085
				l76.333,76.335c-36.013,44.956-58.126,103.449-58.126,167.707v106.667c0,10.306,11.07,17.771,17.176,20.493
				c0.969,0.431,2.682,0.84,4.158,0.84h21.333v42.667c0,23.531,19.135,42.667,42.667,42.667h32c5.896,0,10.667-4.771,10.667-10.667
				v-192c0-5.896-4.771-10.667-10.667-10.667h-32c-23.531,0-42.667,19.135-42.667,42.667v-42.667
				c0-52.441,17.383-100.249,45.762-137.405l252.905,252.905v87.167c0,5.896,4.771,10.667,10.667,10.667h32
				c14.962,0,28.094-7.771,35.712-19.454l37.661,37.661c4.167,4.165,10.919,4.165,15.086,0l15.081-15.082
				C513.039,489.626,513.039,482.872,508.872,478.706z"/>
			<path d="M159.391,83.975c3.298,3.297,8.346,3.891,12.443,1.661c25.428-13.845,53.991-21.637,84.165-21.637
				c105.865,0,192,95.698,192,213.333v42.667c0-23.531-19.135-42.667-42.667-42.667h-32c-0.057,0-0.113,0-0.169,0.001
				c-7.466,0.117-10.777,9.634-5.499,14.914L471.216,395.8c4.799,4.799,12.865,3.992,16.523-1.725
				c1.842-2.88,2.926-6.25,2.926-10.076V277.333c0-141.156-105.271-256-234.667-256c-39.797,0-77.19,11.06-110.035,30.253
				c-6.046,3.533-7.092,11.87-2.141,16.82L159.391,83.975z"/>
		</g>
	</g>
</g>
<g>
</g>
<g>
</g>
<g>
</g>
<g>
</g>
<g>
</g>
<g>
</g>
<g>
</g>
<g>
</g>
<g>
</g>
<g>
</g>
<g>
</g>
<g>
</g>
<g>
</g>
<g>
</g>
<g>
</g>
</svg>
